<svg width="20" height="20" viewBox="0 0 20 20" fill="none" xmlns="http://www.w3.org/2000/svg">
<path d="M15.5 7.00004C16.1347 6.99967 16.7458 7.24075 17.2093 7.67437C17.6728 8.10799 17.9541 8.70169 17.996 9.33504L18.001 9.49904V15.499C18.0011 16.1338 17.7597 16.7448 17.3259 17.2081C16.8921 17.6714 16.2983 17.9524 15.665 17.994L15.501 17.999H9.50096C8.86624 17.9991 8.25525 17.7578 7.79191 17.324C7.32858 16.8902 7.04759 16.2964 7.00596 15.663L7.00096 15.499V9.49904C7.00086 8.86432 7.24219 8.25333 7.676 7.78999C8.1098 7.32666 8.70361 7.04568 9.33696 7.00404L9.49996 7.00004H15.5ZM15.5 8.00004H9.50196C9.12923 8.00003 8.76985 8.1388 8.49385 8.38929C8.21784 8.63978 8.04499 8.98406 8.00896 9.35504L8.00196 9.49904V15.499C8.00198 15.8719 8.14088 16.2314 8.39158 16.5075C8.64227 16.7835 8.9868 16.9562 9.35796 16.992L9.50196 16.999H15.502C15.8748 16.999 16.2343 16.8601 16.5104 16.6094C16.7864 16.3587 16.9592 16.0142 16.995 15.643L17 15.5V9.50004C16.9999 9.12716 16.861 8.76765 16.6103 8.49162C16.3596 8.21559 16.0151 8.04284 15.644 8.00704L15.5 8.00004ZM12.501 9.00004C12.618 9 12.7313 9.04101 12.8212 9.11593C12.9111 9.19085 12.9719 9.29492 12.993 9.41004L13 9.50004V11.998H15.501C15.6259 11.9978 15.7464 12.0444 15.8387 12.1285C15.9311 12.2127 15.9885 12.3284 15.9998 12.4529C16.0111 12.5773 15.9754 12.7014 15.8997 12.8009C15.8241 12.9003 15.7139 12.9678 15.591 12.99L15.501 12.998H13L13.001 15.498C13.0012 15.623 12.9546 15.7435 12.8704 15.8358C12.7863 15.9282 12.6706 15.9856 12.5461 15.9969C12.4217 16.0082 12.2975 15.9725 12.1981 15.8968C12.0987 15.8211 12.0312 15.711 12.009 15.588L12.001 15.498L12 13H9.50096C9.37601 13.0003 9.25551 12.9537 9.16317 12.8695C9.07084 12.7854 9.01337 12.6697 9.00208 12.5452C8.99079 12.4208 9.0265 12.2966 9.10218 12.1972C9.17785 12.0978 9.28801 12.0303 9.41096 12.008L9.50096 12H12L12.001 9.50004C12.001 9.36743 12.0536 9.24025 12.1474 9.14649C12.2412 9.05272 12.3683 9.00004 12.501 9.00004ZM12.663 3.69404L12.711 3.85204L13.286 5.99904H12.25L11.745 4.11004C11.6484 3.74994 11.4212 3.43871 11.1077 3.23701C10.7941 3.03531 10.4167 2.9576 10.049 3.01904L9.90796 3.04904L4.11196 4.60304C3.75206 4.69959 3.44098 4.92663 3.2393 5.23996C3.03763 5.55329 2.95979 5.93047 3.02096 6.29804L3.05096 6.44004L4.60496 12.235C4.688 12.5451 4.86832 12.8204 5.11942 13.0204C5.37052 13.2203 5.67916 13.3345 5.99996 13.346V14.346C5.48918 14.3353 4.99396 14.1683 4.58096 13.8676C4.16796 13.5669 3.85701 13.1468 3.68996 12.664L3.63796 12.494L2.08496 6.69904C1.92043 6.086 1.99525 5.43333 2.29424 4.87343C2.59323 4.31353 3.09399 3.88831 3.69496 3.68404L3.85296 3.63704L9.64796 2.08404C10.2338 1.92698 10.8568 1.98829 11.4009 2.25653C11.9449 2.52477 12.3728 2.98165 12.605 3.54204L12.663 3.69404Z" fill="#848484"/>
</svg>
