<svg width="20" height="20" viewBox="0 0 20 20" fill="none" xmlns="http://www.w3.org/2000/svg">
<path d="M3.33337 5.00004C3.33337 4.55801 3.50897 4.13409 3.82153 3.82153C4.13409 3.50897 4.55801 3.33337 5.00004 3.33337H6.66671C7.10874 3.33337 7.53266 3.50897 7.84522 3.82153C8.15778 4.13409 8.33337 4.55801 8.33337 5.00004V5.83337C8.33337 6.2754 8.15778 6.69932 7.84522 7.01189C7.53266 7.32445 7.10874 7.50004 6.66671 7.50004H5.00004C4.55801 7.50004 4.13409 7.32445 3.82153 7.01189C3.50897 6.69932 3.33337 6.2754 3.33337 5.83337V5.00004Z" stroke="#848484" stroke-linecap="round" stroke-linejoin="round"/>
<path d="M3.33337 12.5C3.33337 12.058 3.50897 11.6341 3.82153 11.3215C4.13409 11.009 4.55801 10.8334 5.00004 10.8334H6.66671C7.10874 10.8334 7.53266 11.009 7.84522 11.3215C8.15778 11.6341 8.33337 12.058 8.33337 12.5V15C8.33337 15.4421 8.15778 15.866 7.84522 16.1786C7.53266 16.4911 7.10874 16.6667 6.66671 16.6667H5.00004C4.55801 16.6667 4.13409 16.4911 3.82153 16.1786C3.50897 15.866 3.33337 15.4421 3.33337 15V12.5Z" stroke="#848484" stroke-linecap="round" stroke-linejoin="round"/>
<path d="M11.6667 5.00004C11.6667 4.55801 11.8423 4.13409 12.1549 3.82153C12.4674 3.50897 12.8913 3.33337 13.3334 3.33337H15C15.4421 3.33337 15.866 3.50897 16.1786 3.82153C16.4911 4.13409 16.6667 4.55801 16.6667 5.00004V7.50004C16.6667 7.94207 16.4911 8.36599 16.1786 8.67855C15.866 8.99111 15.4421 9.16671 15 9.16671H13.3334C12.8913 9.16671 12.4674 8.99111 12.1549 8.67855C11.8423 8.36599 11.6667 7.94207 11.6667 7.50004V5.00004Z" stroke="#848484" stroke-linecap="round" stroke-linejoin="round"/>
<path d="M11.6667 14.1667C11.6667 13.7247 11.8423 13.3008 12.1549 12.9882C12.4674 12.6756 12.8913 12.5 13.3334 12.5H15C15.4421 12.5 15.866 12.6756 16.1786 12.9882C16.4911 13.3008 16.6667 13.7247 16.6667 14.1667V15C16.6667 15.4421 16.4911 15.866 16.1786 16.1786C15.866 16.4911 15.4421 16.6667 15 16.6667H13.3334C12.8913 16.6667 12.4674 16.4911 12.1549 16.1786C11.8423 15.866 11.6667 15.4421 11.6667 15V14.1667Z" stroke="#848484" stroke-linecap="round" stroke-linejoin="round"/>
</svg>
