<svg width="20" height="20" viewBox="0 0 20 20" fill="none" xmlns="http://www.w3.org/2000/svg">
<path d="M15.8334 13.3334V15.8334C15.8334 16.0544 15.7456 16.2663 15.5893 16.4226C15.433 16.5789 15.2211 16.6667 15 16.6667H5.00004C4.55801 16.6667 4.13409 16.4911 3.82153 16.1786C3.50897 15.866 3.33337 15.4421 3.33337 15V5.00004C3.33337 4.55801 3.50897 4.13409 3.82153 3.82153C4.13409 3.50897 4.55801 3.33337 5.00004 3.33337H13.3334C13.5544 3.33337 13.7663 3.42117 13.9226 3.57745C14.0789 3.73373 14.1667 3.94569 14.1667 4.16671V6.66671M3.33337 5.00004C3.33337 5.44207 3.50897 5.86599 3.82153 6.17855C4.13409 6.49111 4.55801 6.66671 5.00004 6.66671H15C15.2211 6.66671 15.433 6.7545 15.5893 6.91079C15.7456 7.06707 15.8334 7.27903 15.8334 7.50004V10M16.6667 10V13.3334H13.3334C12.8913 13.3334 12.4674 13.1578 12.1549 12.8452C11.8423 12.5327 11.6667 12.1087 11.6667 11.6667C11.6667 11.2247 11.8423 10.8008 12.1549 10.4882C12.4674 10.1756 12.8913 10 13.3334 10H16.6667Z" stroke="#848484" stroke-linecap="round" stroke-linejoin="round"/>
</svg>
